<?xml version="1.0" encoding="UTF-8" standalone="no"?>
<!-- Created with Inkscape (http://www.inkscape.org/) -->

<svg
   width="180.62222mm"
   height="180.62222mm"
   viewBox="0 0 180.62222 180.62222"
   version="1.1"
   id="svg1"
   xml:space="preserve"
   xmlns="http://www.w3.org/2000/svg"
   xmlns:svg="http://www.w3.org/2000/svg"><defs
     id="defs1" /><g
     id="layer1"
     transform="translate(-10.764101,-42.258556)"><path
       style="fill:#ffffff"
       d="m 20.905024,222.5025 c -3.757227,-0.8989 -7.116786,-3.69429 -8.872846,-7.38283 l -1.091688,-2.29306 v -42.69353 -42.69353 l 1.157314,-2.35083 c 1.941175,-3.94309 5.557648,-6.64648 9.826613,-7.3456 2.983348,-0.48858 57.975348,-0.45099 60.639181,0.0414 5.60445,1.03604 9.697376,5.12321 10.719828,10.70476 0.495451,2.70466 0.533223,80.22282 0.04055,83.23114 -0.699075,4.2687 -3.40244,7.8853 -7.345268,9.82662 l -2.350511,1.15731 -30.699412,0.0575 c -17.155667,0.0321 -31.28368,-0.0823 -32.023766,-0.25937 z M 81.82882,210.80784 c 0.489196,-0.69843 0.54917,-5.14826 0.54917,-40.74583 0,-39.49142 -0.0083,-39.97009 -0.705555,-40.66734 -0.693981,-0.69398 -1.175926,-0.70556 -29.37845,-0.70556 -25.380248,0 -28.76293,0.0631 -29.456944,0.54917 l -0.784051,0.54917 v 40.25708 c 0,36.96458 0.04775,40.30985 0.583843,40.90222 0.556607,0.61504 1.938059,0.64514 29.613329,0.64514 h 29.029487 z m 36.50758,11.59533 c -4.89627,-1.33464 -8.67401,-5.57825 -9.50996,-10.68271 -0.4777,-2.91695 -0.44306,-35.43549 0.0406,-38.07558 1.03902,-5.67199 5.1884,-9.74171 10.94471,-10.7346 1.55418,-0.26808 11.3976,-0.35606 31.71072,-0.28343 l 29.45695,0.10532 2.02729,0.81865 c 2.82997,1.14279 5.61749,3.79183 7.04823,6.69808 l 1.15504,2.34621 v 20.11575 20.11575 l -1.09169,2.29306 c -1.38746,2.9143 -3.57874,5.10558 -6.49304,6.49303 l -2.29305,1.09169 -30.69167,0.0692 c -23.58158,0.0531 -31.0652,-0.0327 -32.30409,-0.37037 z m 61.1159,-11.39512 c 0.6087,-0.55088 0.64513,-1.58567 0.64513,-18.32444 v -17.7406 l -0.78405,-0.54917 c -0.69401,-0.48611 -4.07669,-0.54917 -29.45694,-0.54917 -28.20252,0 -28.68447,0.0116 -29.37845,0.70555 -0.68646,0.68647 -0.70556,1.17593 -0.70556,18.08956 0,15.16293 0.0702,17.48418 0.54918,18.16806 l 0.54917,0.78405 h 28.96819 c 26.46014,0 29.02404,-0.0506 29.61333,-0.58384 z m -60.38542,-63.74471 c -5.35643,-1.18672 -9.19275,-5.18422 -10.199,-10.62751 -0.50034,-2.70661 -0.53463,-80.20532 -0.0368,-83.245244 0.70758,-4.321025 3.60848,-8.097423 7.68946,-10.010177 l 2.0172,-0.945464 h 31.39722 31.39723 l 2.29305,1.091689 c 2.9143,1.387453 5.10558,3.578732 6.49304,6.493034 l 1.09169,2.293055 0.10959,41.451389 c 0.0808,30.556318 0.002,41.961368 -0.30109,43.391668 -0.87998,4.15741 -4.09698,8.00743 -8.01177,9.58829 l -2.02729,0.81865 -29.98611,0.0652 c -22.48668,0.0489 -30.47137,-0.0423 -31.92639,-0.36463 z m 60.2465,-11.36229 0.78405,-0.54917 V 95.094803 c 0,-36.964576 -0.0478,-40.309844 -0.58384,-40.902219 -0.5566,-0.615043 -1.93806,-0.645139 -29.61333,-0.645139 h -29.02948 l -0.54917,0.784051 c -0.4892,0.698425 -0.54918,5.14826 -0.54918,40.745834 0,39.49141 0.008,39.97009 0.70556,40.66734 0.69398,0.69398 1.17593,0.70555 29.37845,0.70555 25.38025,0 28.76293,-0.0631 29.45694,-0.54917 z M 21.605492,102.2176 C 17.69187,101.55927 13.965848,98.689601 12.097804,94.895064 L 10.94049,92.544226 V 72.428475 52.312723 l 1.091688,-2.293055 c 0.600429,-1.261181 1.791054,-2.992421 2.645834,-3.847201 0.854779,-0.85478 2.58602,-2.045405 3.8472,-2.645833 l 2.293056,-1.091689 H 52.21549 83.612712 l 2.017207,0.945464 c 4.080978,1.912754 6.981872,5.689152 7.689458,10.010177 0.481839,2.942447 0.450397,35.454004 -0.03684,38.089689 -1.026019,5.550247 -5.168696,9.692925 -10.718943,10.718945 -2.448402,0.45261 -58.276614,0.46944 -60.958106,0.0184 z M 81.672435,90.589112 c 0.686465,-0.686465 0.705555,-1.175926 0.705555,-18.08956 0,-15.162923 -0.07017,-17.48418 -0.54917,-18.168056 l -0.549171,-0.784051 h -28.96819 c -26.460146,0 -29.024047,0.05055 -29.61333,0.583843 -0.608708,0.550873 -0.645139,1.585663 -0.645139,18.324441 v 17.740598 l 0.784051,0.54917 c 0.694014,0.486107 4.076696,0.549171 29.456944,0.549171 28.202524,0 28.684469,-0.01158 29.37845,-0.705556 z"
       id="path1" /></g></svg>
