<?xml version="1.0" encoding="UTF-8" standalone="no"?>
<!-- Created with Inkscape (http://www.inkscape.org/) -->

<svg
   width="103.18334mm"
   height="135.45108mm"
   viewBox="0 0 103.18334 135.45108"
   version="1.1"
   id="svg1"
   xml:space="preserve"
   xmlns="http://www.w3.org/2000/svg"
   xmlns:svg="http://www.w3.org/2000/svg"><defs
     id="defs1" /><g
     id="layer1"
     transform="translate(-120.93256,-22.765076)"><path
       style="fill:#ffffff"
       d="m 131.82315,157.68984 c -2.62013,-0.68631 -4.59814,-1.85886 -6.65726,-3.94636 -2.04713,-2.07536 -3.00315,-3.75517 -3.70995,-6.51871 -0.51316,-2.00647 -0.52338,-3.11383 -0.52338,-56.730511 0,-53.616679 0.0102,-54.724046 0.52338,-56.730516 0.7068,-2.763539 1.66282,-4.443346 3.70995,-6.518701 2.09145,-2.120273 4.04483,-3.263879 6.76204,-3.958824 1.98021,-0.506454 2.97496,-0.525124 27.74226,-0.520695 21.02835,0.0038 26.00625,0.07196 27.44048,0.37597 1.79917,0.38136 4.2328,1.484263 5.68149,2.574802 1.30633,0.983382 27.69619,26.017901 28.32228,26.867687 1.05672,1.434307 2.25227,4.10472 2.62505,5.863416 0.30985,1.461806 0.37214,8.791268 0.37597,44.241512 0.004,41.4749 -0.008,42.53831 -0.51879,44.53586 -0.71982,2.81446 -1.67165,4.45977 -3.84224,6.64161 -2.15124,2.16237 -3.789,3.10938 -6.63719,3.83782 -1.99437,0.51008 -3.02946,0.52302 -40.6994,0.50882 -37.25679,-0.014 -38.72313,-0.0329 -40.59469,-0.52318 z m 80.977,-8.26555 c 1.40936,-0.82847 2.48265,-2.10196 3.00491,-3.56543 0.29001,-0.81266 0.35637,-8.46547 0.36588,-42.19002 l 0.0116,-41.197296 -13.16302,-0.0777 -13.16302,-0.0777 -1.4552,-0.694633 c -2.15772,-1.029969 -3.55904,-2.38529 -4.55295,-4.403503 l -0.87101,-1.768634 -0.0784,-12.380761 -0.0784,-12.380761 -24.66018,0.07144 -24.66018,0.07144 -1.26793,0.745295 c -1.43986,0.846358 -2.70897,2.44128 -3.10097,3.897068 -0.17567,0.652393 -0.24294,19.569285 -0.19766,55.587866 l 0.0686,54.598929 0.7335,1.24781 c 0.82776,1.40815 2.10011,2.48111 3.56544,3.00672 0.81749,0.29323 7.81154,0.34614 39.62189,0.29974 l 38.62917,-0.0563 z m -71.91174,-24.00547 c -1.24205,-0.62021 -2.22877,-2.14278 -2.22877,-3.43915 0,-1.22306 0.95694,-2.75599 2.13311,-3.41703 0.99628,-0.55994 1.18302,-0.56781 11.7237,-0.49421 10.34478,0.0722 10.73629,0.0934 11.44163,0.6203 1.3115,0.97963 1.79082,1.86046 1.79082,3.29094 0,1.43049 -0.47932,2.31132 -1.79082,3.29095 -0.70532,0.52684 -1.09425,0.54793 -11.36074,0.61613 -10.23801,0.068 -10.67022,0.0507 -11.70893,-0.46793 z m 0,-21.17135 c -1.24218,-0.61488 -2.22877,-2.13518 -2.22877,-3.43446 0,-1.217565 0.9553,-2.755066 2.11774,-3.408394 l 0.99702,-0.560357 h 29.95816 29.95815 l 1.02819,0.577874 c 1.08315,0.608763 2.08657,2.239417 2.08657,3.390877 0,1.26142 -1.027,2.84804 -2.2161,3.42368 -1.11646,0.54047 -1.37719,0.54507 -30.8742,0.54486 -29.30262,-2.1e-4 -29.76439,-0.008 -30.82676,-0.53408 z m 0,-21.166663 c -1.24218,-0.614882 -2.22877,-2.135184 -2.22877,-3.434464 0,-1.217564 0.9553,-2.755065 2.11774,-3.408393 l 0.99702,-0.560357 h 29.95816 29.95815 l 1.02819,0.577874 c 1.08315,0.608764 2.08657,2.239417 2.08657,3.390876 0,1.261425 -1.027,2.848042 -2.2161,3.423679 -1.11646,0.540468 -1.37719,0.545069 -30.8742,0.544862 -29.30262,-2.06e-4 -29.76439,-0.0082 -30.82676,-0.534077 z M 211.68464,54.41906 c 0,-0.0741 -7.76076,-7.441301 -19.38073,-18.397927 l -1.52135,-1.434504 v 9.546375 c 0,8.325746 0.0532,9.599538 0.41577,9.96215 0.36336,0.36336 1.68085,0.415773 10.45104,0.415773 5.5194,0 10.03527,-0.04134 10.03527,-0.09187 z"
       id="path1" /></g></svg>
