<?xml version="1.0" encoding="UTF-8" standalone="no"?>
<!-- Created with Inkscape (http://www.inkscape.org/) -->

<svg
   width="135.48497mm"
   height="95.234711mm"
   viewBox="0 0 135.48497 95.234711"
   version="1.1"
   id="svg1"
   xml:space="preserve"
   xmlns="http://www.w3.org/2000/svg"
   xmlns:svg="http://www.w3.org/2000/svg"><defs
     id="defs1" /><g
     id="layer1"
     transform="translate(-113.24997,-34.482328)"><path
       style="fill:#ffffff"
       d="m 122.3336,129.32531 c -4.42467,-1.19162 -7.84787,-4.73033 -8.7681,-9.06399 -0.41807,-1.96884 -0.42199,-74.310676 -0.004,-76.306246 0.68941,-3.292399 3.1634,-6.550666 6.10618,-8.041889 2.98996,-1.515123 -0.6562,-1.429988 61.24384,-1.429988 40.69788,0 57.3492,0.08378 58.35118,0.293586 4.4448,0.930707 8.22613,4.713741 9.17415,9.178291 0.21244,1.000448 0.29773,11.955377 0.29773,38.242846 0,39.9625 0.0615,38.19211 -1.42999,41.1355 -1.49123,2.94279 -4.74949,5.41678 -8.04189,6.10619 -1.00355,0.21013 -17.62405,0.28863 -58.47291,0.27617 -48.23889,-0.0147 -57.2852,-0.0751 -58.45605,-0.39047 z m 95.84146,-24.46295 c -9.31248,-9.313333 -17.01425,-16.933333 -17.11504,-16.933333 -0.10079,0 -2.95864,2.782666 -6.35077,6.183702 -5.70036,5.715315 -6.32681,6.261431 -8.27046,7.209891 l -2.10295,1.0262 h -3.33473 c -3.33191,0 -3.33653,-8.7e-4 -5.43768,-1.02252 -1.96165,-0.95381 -2.51221,-1.438263 -8.19382,-7.209895 -3.34997,-3.403058 -6.20782,-6.187378 -6.35077,-6.187378 -0.14295,0 -7.87921,7.62 -17.19169,16.933333 l -16.93178,16.93333 h 54.10574 54.10573 z M 138.33679,64.97668 121.20528,47.845165 V 82.108194 116.37122 L 138.33679,99.239709 155.46831,82.108194 Z M 240.79694,82.042304 V 47.845165 l -17.13126,17.131258 -17.13126,17.131258 17.06434,17.065881 c 9.38539,9.386238 17.09446,17.065878 17.13126,17.065878 0.0368,0 0.0669,-15.38871 0.0669,-34.197136 z m -57.67917,12.083621 c 0.3638,-0.188161 12.21029,-11.898812 26.32553,-26.02367 l 25.66407,-25.681559 h -54.10626 -54.10627 l 25.66407,25.680661 c 14.11524,14.124363 25.9022,25.813163 26.19324,25.97511 1.30431,0.725773 3.0204,0.745215 4.36562,0.04946 z"
       id="path1" /></g></svg>
