<?xml version="1.0" encoding="UTF-8" standalone="no"?>
<!-- Created with Inkscape (http://www.inkscape.org/) -->

<svg
   width="124.2937mm"
   height="138.22429mm"
   viewBox="0 0 124.2937 138.22429"
   version="1.1"
   id="svg1"
   xml:space="preserve"
   xmlns="http://www.w3.org/2000/svg"
   xmlns:svg="http://www.w3.org/2000/svg"><defs
     id="defs1" /><g
     id="layer1"
     transform="translate(-108.23469,-59.500094)"><path
       style="fill:#ffffff"
       d="m 163.68648,197.35214 c -14.17444,-1.54625 -27.28004,-7.84665 -37.31399,-17.93838 -11.77248,-11.84026 -18.12258,-27.12717 -18.13776,-43.66393 -0.006,-6.4316 0.71211,-11.80334 2.31879,-17.34764 3.01566,-10.40642 8.61514,-19.749752 16.34405,-27.271808 5.27219,-5.131082 6.54422,-5.871946 10.11059,-5.888666 2.86742,-0.01344 4.24207,0.495772 6.19302,2.294095 1.59981,1.474653 2.20826,2.488971 2.74143,4.570119 0.35179,1.373179 0.38017,2.007758 0.14859,3.322436 -0.49488,2.809516 -1.18876,3.837327 -5.2463,7.771094 -4.01218,3.8898 -6.11085,6.46071 -8.30129,10.1692 -2.75225,4.65966 -4.90951,10.82276 -5.64546,16.12855 -0.41776,3.01188 -0.36238,9.45994 0.10777,12.54712 1.8415,12.09187 8.56009,22.73825 18.78715,29.77036 10.9945,7.55981 25.32798,9.58452 38.1916,5.39485 9.27651,-3.02136 17.50239,-9.25546 22.81747,-17.29256 5.0733,-7.67151 7.40654,-15.42391 7.39248,-24.5622 -0.0197,-12.80114 -5.1496,-24.01651 -15.04458,-32.89155 -3.39855,-3.048234 -4.50778,-5.076559 -4.53282,-8.288649 -0.0186,-2.384348 0.68842,-4.219449 2.30858,-5.992157 1.90377,-2.083029 3.55808,-2.879169 6.28449,-3.02443 2.93355,-0.156298 4.53201,0.462479 7.33039,2.837648 9.32035,7.910818 16.27145,18.608818 19.59522,30.157768 1.74209,6.05316 2.39248,10.83285 2.39248,17.5822 0,36.83868 -32.15478,65.61862 -68.8419,61.61653 z m 4.04371,-77.69245 c -2.43331,-0.73724 -4.61835,-2.73087 -5.80059,-5.29247 l -0.60229,-1.30499 -0.085,-22.42766 c -0.0871,-22.961406 -0.0406,-24.240936 0.95014,-26.173987 0.59873,-1.168197 2.47975,-3.102839 3.71297,-3.81882 4.07363,-2.365064 9.57439,-0.934768 12.20804,3.174309 1.44924,2.261132 1.45324,2.332178 1.45324,25.781118 0,22.30406 -0.0486,23.44164 -1.09067,25.50243 -0.75589,1.49489 -2.59813,3.21761 -4.27159,3.99446 -1.69267,0.78576 -4.84005,1.06073 -6.47422,0.56561 z"
       id="path1" /></g></svg>
