<?xml version="1.0" encoding="UTF-8" standalone="no"?>
<!-- Created with Inkscape (http://www.inkscape.org/) -->

<svg
   width="14.533931mm"
   height="15.058954mm"
   viewBox="0 0 14.533931 15.058955"
   version="1.1"
   id="svg1"
   xml:space="preserve"
   xmlns="http://www.w3.org/2000/svg"
   xmlns:svg="http://www.w3.org/2000/svg"><defs
     id="defs1" /><g
     id="layer1"
     transform="translate(-124.01733,-156.71696)"><path
       style="fill:#ffffff"
       d="m 137.48265,171.72493 c -0.0778,-0.0314 -0.16288,-0.0746 -0.18903,-0.0961 -0.0261,-0.0214 -0.70956,-0.72771 -1.51871,-1.56947 -0.80915,-0.84176 -1.63545,-1.69797 -1.83621,-1.90269 l -0.36503,-0.37223 -0.28273,0.1777 c -1.36495,0.85789 -3.09429,1.12858 -4.66914,0.73084 -1.08991,-0.27526 -2.04021,-0.81482 -2.82941,-1.60648 -1.20151,-1.20525 -1.83364,-2.81269 -1.77079,-4.50292 0.0272,-0.73213 0.15646,-1.36987 0.40303,-1.98877 0.3179,-0.79795 0.70481,-1.39892 1.29373,-2.00946 0.51557,-0.53451 1.07255,-0.94115 1.72223,-1.25736 2.04693,-0.99629 4.46767,-0.76159 6.3074,0.61155 0.12461,0.093 0.3769,0.31506 0.56066,0.49347 0.56011,0.5438 0.92019,1.03857 1.25201,1.72029 0.9908,2.0356 0.75842,4.47076 -0.59889,6.27576 l -0.20366,0.27083 0.0661,0.0785 c 0.0363,0.0432 0.84674,0.89025 1.80089,1.88237 0.95416,0.99211 1.76248,1.8451 1.79628,1.89553 0.12901,0.1925 0.16701,0.47922 0.0909,0.68575 -0.15312,0.41532 -0.63592,0.64175 -1.02957,0.48286 z m -6.67207,-4.49548 c 0.6204,-0.0902 1.34181,-0.38481 1.88279,-0.76893 0.35001,-0.24851 0.81387,-0.71008 1.05097,-1.04577 0.35074,-0.49659 0.61461,-1.09488 0.75044,-1.70155 0.0599,-0.26763 0.0683,-0.38216 0.0676,-0.9236 -6.8e-4,-0.52574 -0.0104,-0.66064 -0.0648,-0.90306 -0.20596,-0.91679 -0.58441,-1.60611 -1.24196,-2.26221 -0.67143,-0.66993 -1.41586,-1.06834 -2.34306,-1.25397 -0.3723,-0.0745 -1.28003,-0.0747 -1.63242,-2.9e-4 -0.94092,0.19868 -1.64039,0.56143 -2.30699,1.19643 -0.66023,0.62894 -1.09315,1.42121 -1.30285,2.38429 -0.0831,0.38152 -0.0761,1.34775 0.0127,1.74644 0.35609,1.60015 1.47135,2.85561 2.98263,3.35758 0.7185,0.23865 1.35066,0.29012 2.14502,0.17464 z"
       id="path1" /></g></svg>
