<?xml version="1.0" encoding="UTF-8" standalone="no"?>
<!-- Created with Inkscape (http://www.inkscape.org/) -->

<svg
   width="135.45911mm"
   height="135.4731mm"
   viewBox="0 0 135.45911 135.4731"
   version="1.1"
   id="svg1"
   xml:space="preserve"
   xmlns="http://www.w3.org/2000/svg"
   xmlns:svg="http://www.w3.org/2000/svg"><defs
     id="defs1" /><g
     id="layer1"
     transform="translate(-111.05413,-37.063805)"><path
       style="fill:#ffffff"
       d="m 171.38612,172.05043 c -2.91494,-0.76191 -5.53834,-2.60321 -7.12776,-5.00279 -1.37372,-2.07394 -1.91806,-3.89994 -2.09942,-7.0426 l -0.16552,-2.86814 -2.64584,-0.98941 c -1.45521,-0.54418 -3.3208,-1.32742 -4.14576,-1.74054 l -1.49993,-0.75112 -1.84146,1.70491 c -2.12605,1.96839 -3.81772,2.96244 -6.01585,3.53498 -2.86943,0.74739 -5.90861,0.42464 -8.78657,-0.93309 -1.7569,-0.82885 -10.60019,-9.67215 -11.42905,-11.42905 -1.35773,-2.87796 -1.68048,-5.91714 -0.93309,-8.78657 0.57079,-2.19138 1.56564,-3.88878 3.5103,-5.98919 l 1.68022,-1.81479 -1.21055,-2.64091 c -0.6658,-1.4525 -1.21055,-2.70055 -1.21055,-2.77344 0,-0.0729 -0.24668,-0.79184 -0.54817,-1.59766 l -0.54818,-1.46514 h -2.17436 c -6.28288,0 -11.16814,-3.5684 -12.6484,-9.23893 -0.65606,-2.51321 -0.65606,-12.346416 0,-14.859629 1.48026,-5.670533 6.36552,-9.238936 12.6484,-9.238936 h 2.17436 l 0.54818,-1.465133 c 0.30149,-0.805824 0.54817,-1.524773 0.54817,-1.597665 0,-0.07289 0.54475,-1.32094 1.21055,-2.773439 l 1.21055,-2.640908 -1.68022,-1.814794 c -1.94466,-2.10041 -2.93951,-3.797807 -3.5103,-5.989185 -0.74912,-2.876089 -0.42244,-5.930916 0.93965,-8.786577 0.65378,-1.370681 8.2491,-9.315344 10.20018,-10.669325 1.68615,-1.170134 3.73821,-1.872453 5.91709,-2.025124 3.84095,-0.26913 6.89072,0.888917 10.05407,3.817701 l 1.89503,1.754504 1.49993,-0.751126 c 0.82496,-0.413119 2.69055,-1.19636 4.14576,-1.740534 l 2.64584,-0.989409 0.16552,-2.868138 c 0.2981,-5.165494 2.11897,-8.35873 6.14302,-10.772949 2.3756,-1.425236 4.32554,-1.752479 10.44247,-1.752479 6.01677,0 7.43563,0.19782 9.83961,1.371861 4.33934,2.11922 6.87917,6.455707 6.87917,11.745478 v 2.158246 l 2.3151,0.872382 c 1.27331,0.479811 3.18169,1.277539 4.24085,1.772729 l 1.92575,0.900345 1.81251,-1.678111 c 0.99689,-0.922961 2.4014,-1.998621 3.12115,-2.390355 2.68108,-1.459227 6.18002,-1.90013 9.03945,-1.139066 2.93056,0.779998 4.17242,1.656679 8.45064,5.965656 2.23947,2.255573 4.42965,4.616838 4.86707,5.247255 1.10827,1.597274 1.84623,3.816322 1.9969,6.004677 0.25477,3.700417 -0.9331,6.791153 -3.80029,9.887976 l -1.72982,1.868362 1.21055,2.640908 c 0.6658,1.452499 1.21055,2.700547 1.21055,2.773439 0,0.07289 0.24668,0.791841 0.54818,1.597665 l 0.54817,1.465133 h 2.17436 c 4.95757,0 8.95981,2.118774 11.27459,5.96874 1.52953,2.543923 1.82621,4.236131 1.84361,10.515485 0.0177,6.37146 -0.29054,8.26568 -1.73722,10.67702 -2.41801,4.03036 -5.60716,5.84576 -10.79159,6.14302 l -2.88677,0.16553 -0.60678,1.80137 c -0.33373,0.99075 -1.09801,2.86776 -1.6984,4.17114 l -1.09162,2.36977 1.731,1.86965 c 2.8684,3.09813 4.05629,6.18833 3.80148,9.88926 -0.15067,2.18835 -0.88863,4.4074 -1.9969,6.00467 -0.43742,0.63042 -2.6276,2.99169 -4.86707,5.24726 -4.27822,4.30898 -5.52008,5.18566 -8.45064,5.96565 -2.85943,0.76107 -6.35837,0.32017 -9.03945,-1.13906 -0.71975,-0.39174 -2.12426,-1.4674 -3.12115,-2.39036 l -1.81251,-1.67811 -1.92575,0.90035 c -1.05916,0.49519 -2.96754,1.29292 -4.24085,1.77273 l -2.3151,0.87238 v 2.15824 c 0,6.26606 -3.57468,11.15367 -9.23894,12.63229 -2.50082,0.65283 -12.34704,0.65616 -14.83815,0.005 z m 13.78287,-8.07263 c 0.72696,-0.3835 1.38864,-1.00624 1.75705,-1.65364 0.5345,-0.93927 0.59138,-1.39819 0.59531,-4.80344 0.005,-4.18962 0.33345,-5.5372 1.5558,-6.38021 0.38363,-0.26458 2.24533,-0.98093 4.1371,-1.5919 1.89177,-0.61096 5.10119,-1.94077 7.13205,-2.95512 2.03086,-1.01435 3.96944,-1.84427 4.30798,-1.84427 1.25378,0 2.52762,0.83615 5.16727,3.39182 1.489,1.44163 2.96734,2.7565 3.2852,2.92195 0.72409,0.37689 2.45948,0.38858 3.43975,0.0232 0.99344,-0.37033 7.9757,-7.29799 8.44499,-8.37896 0.2033,-0.46827 0.36963,-1.37439 0.36963,-2.0136 0,-1.49301 -0.68241,-2.52227 -3.71394,-5.60167 -2.29056,-2.32672 -2.90064,-3.26492 -2.90064,-4.46069 0,-0.32438 0.82992,-2.2514 1.84427,-4.28225 1.01436,-2.03086 2.34416,-5.24028 2.95513,-7.13205 0.61096,-1.89178 1.32731,-3.75347 1.59189,-4.1371 0.84302,-1.22235 2.19059,-1.55096 6.38021,-1.5558 3.40525,-0.004 3.86417,-0.0608 4.80344,-0.59531 0.6474,-0.36841 1.27014,-1.0301 1.65364,-1.75705 0.58351,-1.10609 0.61517,-1.43415 0.61517,-6.37454 0,-4.940384 -0.0317,-5.268445 -0.61517,-6.374526 -0.3835,-0.726959 -1.00624,-1.388642 -1.65364,-1.757054 -0.93927,-0.534499 -1.39819,-0.591376 -4.80344,-0.595313 -4.18962,-0.0048 -5.53719,-0.333447 -6.38021,-1.5558 -0.26458,-0.383631 -0.98093,-2.245323 -1.59189,-4.137094 -0.61097,-1.89177 -1.94077,-5.101193 -2.95513,-7.13205 -1.01435,-2.030857 -1.84427,-3.957872 -1.84427,-4.282255 0,-1.195769 0.61008,-2.133966 2.90064,-4.460694 3.01529,-3.062895 3.71394,-4.111815 3.71394,-5.575947 0,-0.625063 -0.12494,-1.471652 -0.27765,-1.881307 -0.37033,-0.993438 -7.29799,-7.975701 -8.37895,-8.444993 -1.02895,-0.446707 -2.80644,-0.480707 -3.59777,-0.06882 -0.31786,0.165445 -1.7962,1.480324 -3.2852,2.921954 -2.64248,2.558408 -3.91328,3.39182 -5.17191,3.39182 -0.34108,0 -2.27484,-0.830442 -4.29723,-1.845428 -2.04323,-1.025439 -5.21019,-2.338504 -7.12742,-2.955122 -1.89768,-0.610332 -3.76421,-1.326166 -4.14784,-1.590743 -1.22235,-0.843015 -1.55095,-2.190592 -1.5558,-6.380206 -0.004,-3.405252 -0.0608,-3.864176 -0.59531,-4.803442 -0.36841,-0.647405 -1.03009,-1.270145 -1.75705,-1.653646 -1.10608,-0.583503 -1.43414,-0.615162 -6.37453,-0.615162 -4.94039,0 -5.26845,0.03166 -6.37453,0.615162 -0.72696,0.383501 -1.38865,1.006241 -1.75706,1.653646 -0.5345,0.939266 -0.59137,1.39819 -0.59531,4.803442 -0.005,4.189614 -0.33345,5.537191 -1.5558,6.380206 -0.38363,0.264577 -2.25016,0.980411 -4.14784,1.590743 -1.91723,0.616618 -5.08419,1.929683 -7.12741,2.955122 -2.0224,1.014986 -3.98209,1.840058 -4.35488,1.833494 -1.19122,-0.02097 -2.04034,-0.590361 -4.91429,-3.295357 -1.5461,-1.455209 -3.07085,-2.790443 -3.38834,-2.967187 -0.78338,-0.436104 -2.65656,-0.421137 -3.6946,0.02952 -1.08097,0.469292 -8.00863,7.451555 -8.37896,8.444993 -0.4812,1.290867 -0.33667,2.932718 0.34459,3.914604 0.34223,0.493249 1.66465,1.95456 2.93872,3.247357 2.28073,2.314257 3.05363,3.512695 3.05363,4.734903 0,0.341081 -0.83045,2.274835 -1.84543,4.297231 -1.02544,2.043226 -2.33851,5.210185 -2.95512,7.127412 -0.61034,1.897681 -1.32617,3.764209 -1.59075,4.14784 -0.84301,1.222353 -2.19059,1.550957 -6.3802,1.5558 -3.40526,0.0039 -3.86418,0.06081 -4.80345,0.595313 -0.6474,0.368412 -1.27014,1.030095 -1.65364,1.757054 -0.5835,1.106081 -0.61516,1.434142 -0.61516,6.37453 0,4.94039 0.0317,5.26845 0.61516,6.37454 0.3835,0.72695 1.00624,1.38864 1.65364,1.75705 0.93927,0.5345 1.39819,0.59137 4.80345,0.59531 4.18961,0.005 5.53719,0.33345 6.3802,1.5558 0.26458,0.38363 0.98041,2.25016 1.59075,4.14784 0.61661,1.91723 1.92968,5.08419 2.95512,7.12741 1.01498,2.0224 1.84543,3.95615 1.84543,4.29723 0,1.23901 -0.7892,2.44094 -3.34606,5.09595 -1.43389,1.48893 -2.75168,2.9624 -2.92842,3.27437 -0.43619,0.76991 -0.42116,2.64647 0.0295,3.68456 0.46929,1.08097 7.45155,8.00863 8.44499,8.37896 1.15575,0.43083 2.87317,0.32961 3.75309,-0.22119 0.43656,-0.27328 1.92467,-1.60096 3.3069,-2.95041 2.47371,-2.41502 3.61879,-3.16533 4.83078,-3.16533 0.33772,0 2.32289,0.84586 4.41147,1.87969 2.08858,1.03383 5.29866,2.36404 7.13351,2.95603 1.83485,0.592 3.64997,1.29241 4.0336,1.55649 1.22217,0.84128 1.55096,2.18941 1.5558,6.37929 0.004,3.40525 0.0608,3.86417 0.59531,4.80344 0.36841,0.6474 1.0301,1.27014 1.75706,1.65364 1.10608,0.58351 1.43414,0.61516 6.37453,0.61516 4.94039,0 5.26845,-0.0317 6.37453,-0.61516 z m -12.19537,-30.31003 c -13.96593,-3.06808 -23.54791,-14.81595 -23.54791,-28.87064 0,-14.120676 9.72511,-25.997367 23.6344,-28.863273 3.46663,-0.714273 9.42528,-0.600649 12.7458,0.243045 10.58559,2.689636 18.78315,10.892438 21.59495,21.608774 0.54217,2.066303 0.6248,2.993644 0.6248,7.011454 0,4.01782 -0.0826,4.94516 -0.6248,7.01146 -2.80009,10.67168 -10.87541,18.78275 -21.46265,21.55763 -3.23131,0.84691 -9.78789,0.99942 -12.96459,0.30155 z m 12.03854,-8.23035 c 7.62777,-2.43901 13.53907,-8.98274 14.92495,-16.52169 0.37056,-2.0158 0.37056,-6.22139 0,-8.23719 -1.12937,-6.143611 -5.35948,-11.819304 -11.09848,-14.891247 -3.52985,-1.889438 -5.31795,-2.290277 -10.17647,-2.281252 -3.93577,0.0073 -4.38211,0.05962 -6.34999,0.744134 -7.01548,2.440293 -12.0645,7.58212 -14.20053,14.461543 -0.54031,1.740152 -0.61444,2.505392 -0.60232,6.217712 0.0127,3.87517 0.0741,4.41241 0.7262,6.35 2.48952,7.39704 8.45206,12.85224 15.92873,14.57338 2.47682,0.57017 8.48521,0.34009 10.84791,-0.41539 z"
       id="path1" /></g></svg>
