<?xml version="1.0" encoding="UTF-8" standalone="no"?>
<!-- Created with Inkscape (http://www.inkscape.org/) -->

<svg
   width="144.49777mm"
   height="144.49777mm"
   viewBox="0 0 144.49777 144.49777"
   version="1.1"
   id="svg1"
   xml:space="preserve"
   xmlns="http://www.w3.org/2000/svg"
   xmlns:svg="http://www.w3.org/2000/svg"><defs
     id="defs1" /><g
     id="layer1"
     transform="translate(-56.436298,-69.986244)"><path
       style="fill:#ffffff"
       d="m 122.1031,214.18831 c -13.91201,-1.4532 -26.161917,-6.21779 -37.075185,-14.42039 -3.358091,-2.524 -9.023485,-7.96701 -12.001657,-11.53057 -8.191776,-9.80194 -13.737012,-22.2372 -15.79429,-35.41889 -0.883502,-5.6609 -0.883502,-15.50576 0,-21.16666 1.915185,-12.27126 6.535266,-23.24824 13.920426,-33.073939 2.523997,-3.358091 7.967014,-9.023485 11.53057,-12.001657 9.801936,-8.191776 22.237196,-13.737012 35.418886,-15.79429 5.6609,-0.883502 15.50576,-0.883502 21.16667,0 7.87924,1.229719 14.36852,3.275088 21.30777,6.716033 7.98038,3.957202 13.8388,8.262493 20.19724,14.84273 10.46315,10.828123 16.98618,24.070033 19.36487,39.311123 0.8835,5.6609 0.8835,15.50576 0,21.16666 -1.22972,7.87924 -3.27509,14.36853 -6.71603,21.30778 -9.46345,19.08465 -26.53448,32.92304 -47.03812,38.13078 -5.26499,1.33726 -10.12054,1.95767 -16.28795,2.08117 -3.02684,0.0606 -6.62377,-0.007 -7.9932,-0.14988 z m 15.6132,-8.857 c 11.78839,-1.73881 22.14019,-6.33792 31.84236,-14.14694 0.0508,-0.0409 -0.11714,-1.19233 -0.37318,-2.55877 -3.89835,-20.80414 -22.72485,-35.3445 -43.59141,-33.66715 -10.10194,0.81204 -18.78036,4.8505 -25.982075,12.09061 -4.894689,4.92078 -8.0868,10.10423 -10.101489,16.4031 -0.955122,2.98617 -1.856499,7.63442 -1.52722,7.87562 0.116473,0.0853 1.261314,0.94351 2.544091,1.9071 7.283176,5.47091 15.411433,9.22087 24.267343,11.1957 2.61668,0.58351 4.2264,0.82155 9.65713,1.42805 1.89368,0.21148 10.60301,-0.13475 13.26445,-0.52732 z M 81.634221,180.37955 c 1.941528,-6.06377 5.504321,-12.28305 9.94871,-17.36665 4.502769,-5.15038 11.610659,-10.23166 17.839669,-12.7532 1.12486,-0.45535 2.04561,-0.89706 2.04611,-0.98158 5.1e-4,-0.0845 -0.62258,-0.62916 -1.38464,-1.21031 -1.8724,-1.42792 -5.06782,-4.82765 -6.44318,-6.85517 -3.47731,-5.12615 -5.214433,-10.80097 -5.216052,-17.03973 -10e-4,-4.0037 0.380811,-6.40088 1.580542,-9.92236 5.60647,-16.456199 23.9586,-24.78555 40.17464,-18.233781 9.43302,3.811222 16.79282,12.965111 18.43997,22.935031 0.7606,4.60377 0.26645,10.58616 -1.23551,14.95778 -1.85305,5.39351 -5.72656,10.82438 -10.09819,14.15823 -0.76205,0.58115 -1.38555,1.14377 -1.38555,1.25027 0,0.1065 0.34625,0.28054 0.76944,0.38675 1.49228,0.37454 6.53487,3.00796 9.42698,4.92311 9.22539,6.10901 16.32751,15.42708 19.64486,25.77429 0.58413,1.82196 1.12555,3.31394 1.20316,3.31551 0.0776,0.002 0.9139,-0.98112 1.85842,-2.18377 5.71641,-7.2786 9.77718,-15.63012 11.82945,-24.3288 4.47047,-18.94841 0.48693,-37.92318 -11.25995,-53.63448 -2.57245,-3.44063 -8.58284,-9.451021 -12.02347,-12.023478 -23.35165,-17.459332 -53.97724,-17.459332 -77.328888,0 -3.44063,2.572457 -9.451019,8.582848 -12.023476,12.023478 -9.012468,12.05406 -13.603502,26.41177 -12.995088,40.64 0.610811,14.28431 5.038472,26.46712 13.564587,37.32328 0.944521,1.20265 1.78081,2.18534 1.858421,2.18377 0.07761,-0.002 0.621677,-1.50375 1.209035,-3.33819 z m 49.910789,-34.60372 c 7.13496,-0.62125 14.12573,-5.8925 17.25587,-13.01145 1.74899,-3.97778 2.24607,-9.58687 1.22408,-13.81258 -1.82235,-7.535 -7.93288,-13.80036 -15.61307,-16.00869 -3.12253,-0.89784 -8.33088,-0.89784 -11.45341,0 -7.68019,2.20833 -13.79072,8.47369 -15.61307,16.00869 -0.64224,2.65551 -0.64735,7.56033 -0.0106,10.14369 1.88328,7.64034 7.37747,13.51991 14.90674,15.95237 1.77672,0.574 5.71834,1.13077 6.86694,0.96998 0.31044,-0.0435 1.40686,-0.15236 2.43649,-0.24201 z"
       id="path1" /></g></svg>
